<?xml version="1.0" standalone="no"?><!DOCTYPE svg PUBLIC "-//W3C//DTD SVG 1.1//EN" "http://www.w3.org/Graphics/SVG/1.1/DTD/svg11.dtd"><svg t="1597199280214" class="icon" viewBox="0 0 1024 1024" version="1.1" xmlns="http://www.w3.org/2000/svg" p-id="28024" xmlns:xlink="http://www.w3.org/1999/xlink" width="200" height="200"><defs><style type="text/css"></style></defs><path d="M211.99 633.41a305.877 305.877 0 0 0-6.08 60.63c0 168.24 136.39 251.03 304.62 251.03 168.28 0 304.66-82.79 304.66-251.03 0-20.77-2.12-41.02-6.09-60.63H211.99z" fill="#80D8FF" p-id="28025"></path><path d="M510.54 960.22c-90.29 0-167.94-22.65-224.54-65.5-62.3-47.16-95.23-116.55-95.23-200.68 0-21.3 2.15-42.71 6.38-63.63l2.46-12.15h621.9l2.46 12.14c4.24 20.93 6.39 42.34 6.39 63.64 0 84.13-32.93 153.53-95.23 200.69-56.62 42.84-134.28 65.49-224.59 65.49zM224.66 648.56a291.503 291.503 0 0 0-3.59 45.48c0 173.92 149.53 235.88 289.47 235.88 139.96 0 289.51-61.97 289.51-235.88a290.4 290.4 0 0 0-3.6-45.48H224.66z" fill="#071118" p-id="28026"></path><path d="M512.62 957.92c-91.33 0-169.87-22.9-227.12-66.22-63.01-47.68-96.31-117.85-96.31-202.93 0-157.35 110.91-216.01 184.3-254.83 31.78-16.81 61.8-32.69 61.8-47.19V100.66c0-22.8 18.55-41.35 41.35-41.35h71.97c22.8 0 41.34 18.55 41.34 41.35v286.09c0 13.89 29.55 29.38 60.84 45.78 73.78 38.67 185.28 97.12 185.28 256.24 0 85.08-33.3 155.26-96.31 202.93-57.26 43.32-135.8 66.22-227.14 66.22zM476.64 89.61c-6.09 0-11.05 4.95-11.05 11.04v286.09c0 32.75-34.4 50.94-77.94 73.97-70.97 37.54-168.17 88.94-168.17 228.04 0 176.11 151.42 238.86 293.13 238.86 141.72 0 293.15-62.75 293.15-238.86 0-140.79-97.71-192.01-169.05-229.4-43.06-22.57-77.07-40.4-77.07-72.62V100.66c0-6.09-4.96-11.04-11.04-11.04h-71.96z" fill="#071118" p-id="28027"></path><path d="M680.17 730.16c0 21.16-17.17 38.32-38.3 38.32-21.16 0-38.31-17.16-38.31-38.32s17.15-38.3 38.31-38.3c21.14 0 38.3 17.14 38.3 38.3zM388.14 705.76c0 16.41-13.29 29.71-29.73 29.71-16.39 0-29.73-13.31-29.73-29.71 0-16.42 13.33-29.74 29.73-29.74 16.43 0.01 29.73 13.32 29.73 29.74z" fill="#FFFFFF" p-id="28028"></path><path d="M450.19 807.92c0 11.47-9.29 20.75-20.74 20.75-11.46 0-20.75-9.28-20.75-20.75 0-11.46 9.29-20.76 20.75-20.76 11.46-0.01 20.74 9.29 20.74 20.76z" fill="#FFFFFF" p-id="28029"></path></svg>